<?xml version="1.0" encoding="UTF-8" standalone="no"?>
<svg width="161px" height="29px" viewBox="0 0 161 29" version="1.1" xmlns="http://www.w3.org/2000/svg" xmlns:xlink="http://www.w3.org/1999/xlink">
    <!-- Generator: Sketch 3.7.2 (28276) - http://www.bohemiancoding.com/sketch -->
    <title>devcongress</title>
    <desc>Created with Sketch.</desc>
    <defs></defs>
    <g id="Home" stroke="none" stroke-width="1" fill="none" fill-rule="evenodd">
        <g id="Desktop-HD" transform="translate(-639.000000, -3380.000000)">
            <g id="devcongress" transform="translate(640.000000, 3381.000000)">
                <path d="M0.0264694924,2.66078014 C0.0382734552,2.68128804 1.45844518,1.8093448 1.46917606,1.82770652 C1.49922251,1.87993012 1.87563777,3.80814917 1.9011534,3.85214576 C1.97638876,3.98258551 5.93763176,1.39274838 5.99343231,1.48932626 C6.05543292,1.59675424 2.82317405,5.45700777 2.88243233,5.55978571 C3.01489903,5.78906875 8.49885322,2.02348538 8.62595448,2.24382602 C8.72825549,2.42088546 3.53975806,7.25931789 3.62393581,7.40513857 C3.80576453,7.72014937 15.1261226,0.297364477 15.3282207,0.647548707 C15.5441498,1.02146009 1.86824539,10.1450887 2.10539773,10.5557235 C2.34207315,10.9657622 18.0171396,0.849885322 18.242011,1.23929686 C18.4528131,1.60450432 2.2053141,12.2528711 2.42947016,12.6410903 C2.7333924,13.1673801 23.7448039,-0.269464201 24.0063988,0.183497967 C24.3034056,0.698103053 2.51233637,14.187171 2.80743544,14.6983183 C3.10074603,15.2063657 27.4321711,-0.480743212 27.8486483,0.240729302 C28.274664,0.978417361 1.63407384,16.754354 2.02110074,17.4245568 C2.42803938,18.1294561 27.3446548,1.77882143 27.7885554,2.54774825 C28.2270905,3.30725576 1.8414182,18.7437391 2.30034196,19.5385392 C2.76367731,20.3410895 33.7633875,0.363180512 34.2008495,1.12078031 C34.6243614,1.85429525 1.78037144,21.206475 2.17335994,21.8869317 C2.71371913,22.8230217 35.2976642,1.36854429 35.9013356,2.41408924 C36.4804451,3.41730685 1.14104974,23.5002592 1.68450895,24.4415954 C2.29664577,25.5018059 41.9814495,0.0961009497 42.4490772,0.906043569 C43.0387984,1.92750366 1.75032499,25.5125367 2.25527229,26.3869838 C2.91796345,27.5348298 44.0343852,0.664956571 44.7275997,1.86562228 C45.2914476,2.84213193 7.96815182,24.001868 8.55668072,25.0214204 C9.15200583,26.0525382 47.3789605,0.994513674 48.077302,2.20412178 C48.6023995,3.11374231 10.3176173,25.1203829 10.8188685,25.9885107 C11.3186888,26.8541346 50.9945501,1.29605127 51.642695,2.41873929 C52.2562626,3.4816921 14.1257665,25.3246272 14.5702632,26.0947463 C15.1285072,27.0613597 57.213927,0.0918085996 57.8125906,1.12864962 C58.3326803,2.02968544 18.2309225,24.9928047 18.7770048,25.9386717 C19.4575808,27.117518 62.1932915,-0.733276477 62.8886523,0.470846961 C63.4889851,1.51078801 23.0531394,24.5650005 23.5638098,25.4497015 C24.181312,26.5189736 66.3552019,-0.713126278 66.9860581,0.379753753 C67.4980401,1.26648175 25.4904788,25.0961788 26.1461353,26.2318631 C26.6916215,27.176657 68.5160425,0.117681932 69.2314342,1.3566211 C69.7794242,2.30582663 33.0645691,23.5283979 33.4898694,24.2652513 C34.0716021,25.2726421 72.5518055,0.0809584924 73.2584932,1.30487443 C73.7143169,2.09418993 35.1332434,24.4133374 35.6429599,25.2961308 C36.3074396,26.4470767 77.6592252,-0.127458952 78.163934,0.746749687 C78.7853709,1.82317571 41.0581173,23.213864 41.5904879,24.1360039 C42.1204739,25.0539707 79.9302361,0.842731405 80.4318449,1.71109768 C81.0145314,2.72063458 43.0367715,24.2885016 43.5937039,25.253088 C44.227064,26.3501412 83.9036407,0.603909814 84.499562,1.63610078 C85.1277951,2.72445 46.9095444,24.5193346 47.382776,25.3390543 C47.9522277,26.3252217 90.4646171,-1.05639506 91.1237313,0.0851316105 C91.7698492,1.20424267 51.9329055,23.9263941 52.392187,24.7221482 C52.9196691,25.6357033 93.2552408,-0.0350541926 93.7597112,0.838558287 C94.2254312,1.64420856 54.3458025,24.4650841 54.9540046,25.5186176 C55.4641981,26.4021263 94.9992465,1.18373478 95.5250594,2.09466685 C96.046103,2.99677577 59.4081525,23.9131594 59.9747427,24.8944383 C60.4578706,25.7312081 100.625802,-0.11327035 101.291116,1.04041797 C101.782352,1.89161485 60.9259752,25.2481995 61.5197503,26.2765751 C62.0535517,27.2010996 102.88644,1.12686114 103.434907,2.07713976 C104.02272,3.09573829 68.4979192,23.3143766 69.0202744,24.2191086 C69.5178293,25.0810363 110.196551,-1.0953839 110.864249,0.0606890613 C111.431794,1.04411416 70.1715781,24.5340001 70.7316105,25.503952 C71.3883401,26.6415441 112.330802,0.306068409 112.842307,1.19148485 C113.414621,2.18456774 73.7013207,24.559635 74.3516117,25.6860192 C74.9320328,26.6911445 114.766711,0.831165906 115.424871,1.97233488 C116.044878,3.04661472 79.4543814,23.9087478 79.9325015,24.7370522 C80.6281007,25.9417718 120.829656,-0.205198182 121.405546,0.792415523 C121.866974,1.59031572 84.2011244,23.164502 84.7991919,24.2005084 C85.3403857,25.1377907 124.052495,0.193036523 124.634347,1.20161957 C125.143467,2.08322059 85.6154538,24.7896334 86.1411474,25.7004463 C86.6576602,26.5949244 126.46575,1.2420392 126.97487,2.12495177 C127.60203,3.21103558 90.1899067,24.5127769 90.6764923,25.355389 C91.3131909,26.4582846 131.246951,0.603790582 131.821649,1.60009274 C132.305731,2.43698178 95.7086766,23.4604357 96.2559512,24.4086874 C96.7972643,25.3453736 134.331481,0.801954079 135.03495,2.01966996 C135.511878,2.84618582 99.315443,23.6471529 99.86391,24.5980277 C100.451723,25.6161493 141.324435,-0.863358532 141.98498,0.279837381 C142.564447,1.28329345 101.024037,24.8290992 101.617812,25.8590248 C102.204433,26.874881 144.931202,-0.509120416 145.520207,0.512220447 C146.082982,1.48682239 108.30434,23.1530557 108.788421,23.9920909 C109.445389,25.1303984 147.820192,-0.00524620569 148.453313,1.09144925 C148.977934,1.9989236 112.131685,23.2730031 112.593113,24.071261 C113.135618,25.0116433 150.812913,0.544413072 151.444843,1.63991621 C152.062464,2.71085756 114.032242,24.199793 114.600979,25.1856027 C115.209062,26.2396132 155.397382,0.320376243 155.964926,1.30380135 C156.648125,2.48562841 116.160533,25.1453023 116.772192,26.2059897 C117.317082,27.1492337 157.485133,1.22808906 158.123024,2.33217689 C158.62976,3.20936633 123.927302,23.0948705 124.469807,24.0351337 C124.895465,24.7719871 154.984839,5.38821094 155.430767,6.16035703 C155.917233,7.00284997 125.882706,24.4746226 126.323864,25.2384225 C126.744753,25.9657374 157.466056,6.33276643 157.866675,7.02729252 C158.33168,7.83127355 128.427115,25.4480323 128.795542,26.0859232 C129.231931,26.8424499 157.479172,8.64825085 157.858329,9.30605351 C158.247025,9.97995247 135.464185,23.8311278 135.757495,24.3404867 C136.090153,24.9156616 155.811117,11.9438219 156.166428,12.5579856 C156.433507,13.0217979 138.862295,24.2941055 139.091221,24.690194 C139.401224,25.2272147 155.851656,14.4025039 156.116351,14.860593 C156.392969,15.3394285 140.672236,25.4997789 140.911893,25.9135138 C141.103856,26.2467671 157.829714,15.7438633 158.003792,16.0457586 C158.205294,16.3949889 144.191963,25.748616 144.429235,26.1585354 C144.571121,26.4043917 158.529605,17.7016519 158.666722,17.9385657 C158.8253,18.2127992 149.036357,25.3905625 149.200898,25.6755268 C149.311783,25.8685633 156.31666,21.3706573 156.401315,21.5182665 C156.444238,21.5920711 155.397382,24.2811092 155.436728,24.3493099 C155.482037,24.4270491 159.033956,22.1616421 159.082841,22.244866" id="Stroke-1" stroke="#FBED30" stroke-width="1.78399992" stroke-linecap="round" stroke-linejoin="round"></path>
                <path d="M11.4708287,16.0396777 C11.5250793,15.5932733 11.5529796,15.0191715 11.5529796,14.3154645 C11.5529796,13.4102556 11.5185215,12.7947803 11.4504401,12.4698732 C11.3275119,11.7940666 11.0339629,11.2668229 10.569316,10.888023 C10.0229952,10.4416186 9.39452361,10.2184164 8.68402044,10.2184164 C7.72754175,10.2184164 6.97971898,10.5768276 6.44031365,11.2931731 C5.90055062,12.0104725 5.63060949,12.9905591 5.63060949,14.2341484 C5.63060949,15.5189918 5.91044687,16.5296018 6.47083702,17.2669322 C7.03075025,18.0031895 7.79574243,18.3713777 8.76605201,18.3713777 C9.50385931,18.3713777 10.1182615,18.1585487 10.6102125,17.7326522 C11.1020443,17.3067556 11.3887972,16.7426693 11.4708287,16.0396777 M8.55131528,8.88039545 C9.89005158,8.88039545 10.8902884,9.40108137 11.5529796,10.4416186 L11.5529796,8.39297525 C11.5529796,7.85249683 11.5393871,7.52127048 11.5123215,7.39953466 C11.4447169,6.98079206 11.2553766,6.77058614 10.9446582,6.77058614 C10.8359186,6.77058614 10.6837787,6.79479023 10.488119,6.84176761 C10.2922209,6.88957962 10.1398425,6.91306832 10.0319376,6.91306832 C9.53152112,6.91306832 9.28137249,6.69296614 9.28137249,6.25359642 C9.28137249,5.80063425 9.61903737,5.57397432 10.2954402,5.57397432 C10.4034644,5.57397432 10.5996009,5.58756676 10.8838499,5.61475164 C11.3163041,5.6552905 11.5393871,5.67603686 11.5529796,5.67603686 C11.6747154,5.67603686 11.8504633,5.65874823 12.080104,5.62452866 C12.309864,5.59102448 12.4860888,5.57397432 12.6075861,5.57397432 C12.9860283,5.57397432 13.1751302,5.84558469 13.1751302,6.3867785 L13.1751302,6.61057687 C13.1618955,6.65111573 13.148303,7.00988466 13.1348298,7.68712212 C13.1348298,7.76796138 13.1146796,8.28983962 13.0739023,9.25132604 C13.0468366,9.92880197 13.0334826,10.4429301 13.0334826,10.7947836 L13.0334826,16.1787022 C13.0473136,17.0724649 13.0884486,17.6273704 13.1574839,17.8443725 C13.2260422,18.0610169 13.3911785,18.1692796 13.6528926,18.1692796 C13.8317405,18.1692796 13.9699304,18.1585487 14.0661505,18.1385177 C14.2864912,18.1180098 14.4381542,18.1079943 14.5204243,18.1079943 C15.0299024,18.1079943 15.2844626,18.3280965 15.2844626,18.7668701 C15.2844626,19.2204284 14.9807788,19.4470883 14.3720997,19.4470883 C14.2367715,19.4470883 14.0305002,19.4297997 13.7536436,19.3955801 C13.4760716,19.3623144 13.2700388,19.3450258 13.1348298,19.3450258 C13.0944102,19.3450258 12.938574,19.3588567 12.6683944,19.3855647 C12.5061197,19.426342 12.364353,19.4470883 12.2424979,19.4470883 C11.8775289,19.4470883 11.6952233,19.2034975 11.6952233,18.7170311 L11.6952233,18.2703882 C10.9799508,19.2304439 9.94179825,19.7104717 8.57969248,19.7104717 C7.2041135,19.7104717 6.09823719,19.2104129 5.26242124,18.2098184 C4.42624759,17.2091047 4.00833961,15.8970763 4.00833961,14.2746872 C4.00833961,12.6394211 4.42076292,11.3310889 5.24537107,10.3502869 C6.06974075,9.37008106 7.17215934,8.88039545 8.55131528,8.88039545" id="Fill-3" fill="#C83583"></path>
                <path d="M29.9075456,11.6038916 L32.2803805,17.9662276 L34.572257,11.6381112 C34.7073468,11.259669 34.7751898,11.017032 34.7751898,10.908054 C34.7751898,10.6108087 34.6329461,10.4620072 34.3491741,10.4620072 C34.2407922,10.4620072 34.0817368,10.4792959 33.872604,10.5125616 C33.662875,10.5467812 33.5038196,10.5631159 33.3959146,10.5631159 C32.9495102,10.5631159 32.7264273,10.3468292 32.7264273,9.91389797 C32.7264273,9.45437805 33.0514536,9.22497578 33.7000753,9.22497578 L33.86235,9.22497578 C33.9297161,9.23642205 33.9842051,9.24202595 34.0246247,9.24202595 L34.876537,9.34683083 C35.0657581,9.38736969 35.2620139,9.40811605 35.4645889,9.40811605 C35.7348878,9.40811605 36.1812922,9.36960413 36.8034445,9.29353415 C37.1814098,9.24762985 37.4521855,9.22497578 37.6142217,9.22497578 C38.1955967,9.22497578 38.4866419,9.44793952 38.4866419,9.8945824 C38.4866419,10.3402714 38.249728,10.5631159 37.7766156,10.5631159 C37.6278142,10.5631159 37.5199093,10.5505966 37.4521855,10.5225771 C37.2492527,10.4820382 37.1076052,10.4620072 37.0261698,10.4620072 C36.7829366,10.4620072 36.5324303,10.7876297 36.2757239,11.4378015 L33.4164225,18.7554238 C33.1728317,19.3786492 32.7604084,19.6899638 32.1790334,19.6899638 C31.6243664,19.6899638 31.2258932,19.3779338 30.98266,18.7532776 L28.0619542,11.2156724 C27.8723754,10.7135866 27.6492925,10.4620072 27.3928246,10.4620072 C27.2979159,10.4620072 27.1557914,10.4792959 26.966928,10.5125616 C26.7773492,10.5467812 26.6351055,10.5631159 26.5410315,10.5631159 C26.0946271,10.5631159 25.8714249,10.3574408 25.8714249,9.94442135 C25.8714249,9.46487046 26.1826203,9.22497578 26.8047726,9.22497578 C26.9126775,9.22497578 26.9935168,9.23224893 27.0478865,9.24500675 L27.8997988,9.35315012 C28.1834516,9.3896351 28.4673429,9.40811605 28.7515918,9.40811605 C28.9812326,9.40811605 29.3193744,9.38152733 29.7653018,9.32882681 L30.4347892,9.25061065 C30.5022745,9.23367971 30.5971831,9.22497578 30.7190382,9.22497578 C31.3136479,9.22497578 31.6112509,9.45509344 31.6112509,9.9143749 C31.6112509,10.3475446 31.3541868,10.5631159 30.8404163,10.5631159 C30.6780224,10.5631159 30.5630828,10.5567966 30.4957168,10.5433234 C30.2387719,10.4893114 30.0762588,10.4620072 30.0088927,10.4620072 C29.7927252,10.4620072 29.6844626,10.557512 29.6844626,10.7478062 C29.6844626,10.8425956 29.7112898,10.97852 29.7653018,11.1558179 L29.9075456,11.6038916" id="Fill-4" fill="#D7167D"></path>
                <path d="M41.0419017,19.7104717 C40.6901675,19.7104717 40.3929223,19.5851589 40.1495699,19.3352488 C39.9058598,19.0852194 39.7844816,18.7845164 39.7844816,18.4326629 C39.7844816,18.0810479 39.9058598,17.7803449 40.1495699,17.5296002 C40.3929223,17.2804054 40.6901675,17.1548541 41.0419017,17.1548541 C41.3933975,17.1548541 41.6908812,17.2804054 41.9342336,17.5296002 C42.1773476,17.7803449 42.2994411,18.0810479 42.2994411,18.4326629 C42.2994411,18.7845164 42.1773476,19.0852194 41.9342336,19.3352488 C41.6908812,19.5851589 41.3933975,19.7104717 41.0419017,19.7104717 M41.0419017,12.8553501 C40.6901675,12.8553501 40.3929223,12.7307527 40.1495699,12.4798887 C39.9058598,12.2298593 39.7844816,11.9293948 39.7844816,11.5775413 C39.7844816,11.2264033 39.9058598,10.9249849 40.1495699,10.675194 C40.3929223,10.4250453 40.6901675,10.2997326 41.0419017,10.2997326 C41.3933975,10.2997326 41.6908812,10.4250453 41.9342336,10.675194 C42.1773476,10.9249849 42.2994411,11.2264033 42.2994411,11.5775413 C42.2994411,11.9293948 42.1773476,12.2298593 41.9342336,12.4798887 C41.6908812,12.7307527 41.3933975,12.8553501 41.0419017,12.8553501" id="Fill-5" fill="#1B1A18"></path>
                <path d="M50.5132107,12.6729252 C50.5132107,12.1322084 50.8511141,11.8211322 51.5275169,11.739816 C51.4595547,11.2668229 51.2321794,10.8951769 50.8453909,10.6244011 C50.4586025,10.3539831 49.959736,10.2191318 49.3489108,10.2191318 C48.4122246,10.2191318 47.6589171,10.5910162 47.0886307,11.3339505 C46.5185828,12.0781963 46.2339761,13.0653176 46.2339761,14.2954336 C46.2339761,15.5659692 46.5015326,16.5638214 47.037361,17.2867247 C47.5730701,18.0104626 48.3151698,18.3713777 49.2643753,18.3713777 C49.8608927,18.3713777 50.3793133,18.2025453 50.8201138,17.8651189 C51.260795,17.5267386 51.5624519,17.0603032 51.7254419,16.4655743 C51.8611279,15.9918657 51.9420864,15.7220438 51.9695097,15.6544393 C52.118192,15.3836636 52.3355518,15.2483353 52.6201585,15.2483353 C52.8507531,15.2483353 53.0404511,15.3230937 53.1898487,15.4711798 C53.3386502,15.6209351 53.4134086,15.8095601 53.4134086,16.0396777 C53.4134086,16.3773426 53.3052652,16.7832082 53.0888593,17.2562013 C52.8726917,17.7299098 52.6156277,18.1215868 52.3183824,18.4326629 C51.5204822,19.2848137 50.4857874,19.7104717 49.2150133,19.7104717 C47.8363343,19.7104717 46.7235425,19.2235284 45.8791419,18.2503573 C45.0339066,17.2769477 44.6111101,15.9989004 44.6111101,14.4171694 C44.6111101,12.7405298 45.0473798,11.3986934 45.9194423,10.3910642 C46.7915047,9.38379274 47.9509162,8.88039545 49.3976766,8.88039545 C50.4793489,8.88039545 51.3787154,9.17454067 52.0951802,9.76199647 C52.8117642,10.3502869 53.1702947,11.0976327 53.1702947,12.0034379 C53.1702947,12.5040928 53.0312702,12.9159199 52.7545329,13.2404693 C52.4770801,13.5653764 52.1221266,13.7269357 51.6895531,13.7269357 C51.3512921,13.7269357 51.0708586,13.6259462 50.8475371,13.422775 C50.6248118,13.2206768 50.5132107,12.9705282 50.5132107,12.6729252" id="Fill-6" fill="#515251"></path>
                <path d="M59.7309134,10.2184164 C58.7813501,10.2184164 58.0354351,10.5505966 57.4926912,11.2120954 C56.9505436,11.8751443 56.6518676,12.8145728 56.5973786,14.0318117 L56.5973786,14.2954336 C56.5973786,15.5659692 56.865412,16.5638214 57.4011211,17.2867247 C57.9371879,18.0104626 58.6865607,18.3713777 59.6495972,18.3713777 C60.640057,18.3713777 61.4168531,18.0104626 61.9796279,17.2867247 C62.5421642,16.5638214 62.8241478,15.5596499 62.8241478,14.2746872 C62.8241478,11.5709836 61.792553,10.2184164 59.7309134,10.2184164 M59.6193123,19.7104717 C58.1997367,19.7104717 57.0641716,19.2204284 56.2123786,18.2396264 C55.3605856,17.259659 54.9345698,15.9448883 54.9345698,14.2954336 C54.9345698,12.6457404 55.3634471,11.3310889 56.2221556,10.3502869 C57.0805064,9.37008106 58.2333601,8.88039545 59.680359,8.88039545 C61.1538274,8.88039545 62.3166966,9.36030404 63.1686089,10.3204789 C64.0206404,11.2804153 64.4465369,12.5844551 64.4465369,14.2341484 C64.4465369,15.8843185 64.0070479,17.2091047 63.1281892,18.2098184 C62.2489729,19.2104129 61.0800229,19.7104717 59.6193123,19.7104717" id="Fill-7" fill="#515251"></path>
                <path d="M69.1312793,9.84378959 L69.1312793,10.4215876 C69.9426527,9.39380822 71.0240865,8.88039545 72.3764153,8.88039545 C73.1064725,8.88039545 73.7959908,9.06615883 74.4450895,9.4381625 C75.0943075,9.80980848 75.5333195,10.2727861 75.763318,10.8267378 C75.9526583,11.2868538 76.0469708,11.888856 76.0469708,12.6322671 L76.0469708,16.4856052 C76.0469708,17.0673379 76.0540054,17.4121567 76.0675979,17.5198231 C76.1349639,17.9806546 76.3178657,18.2098184 76.6152302,18.2098184 C76.7367276,18.2098184 76.895783,18.1934836 77.0919196,18.1585487 C77.2876984,18.1250445 77.4267229,18.1079943 77.5074429,18.1079943 C77.6831908,18.1079943 77.83545,18.1692796 77.9637436,18.2911346 C78.0920371,18.412155 78.1566608,18.5616719 78.1566608,18.7368236 C78.1566608,18.9398756 78.0753447,19.1087081 77.9134277,19.2440363 C77.7509145,19.3786492 77.5550164,19.4470883 77.3247795,19.4470883 C77.1356777,19.4470883 76.8246015,19.4190688 76.3921473,19.3657722 C75.9593353,19.3115216 75.5537082,19.2848137 75.1751468,19.2848137 C74.8231741,19.2848137 74.5330827,19.2980484 74.3032035,19.3252333 C73.6268007,19.406311 73.2687472,19.4470883 73.2282083,19.4470883 C72.6871337,19.4470883 72.4167157,19.2104129 72.4167157,18.7368236 C72.4167157,18.318081 72.6510064,18.1079943 73.1199457,18.1079943 C73.2303545,18.1079943 73.3544749,18.1215868 73.4918301,18.1485332 C73.7536635,18.2025453 73.9191574,18.2298494 73.9881927,18.2298494 C74.3194191,18.2298494 74.498267,17.8579649 74.526048,17.1143153 L74.526048,13.3010391 C74.526048,12.5844551 74.4921862,12.0916695 74.4251778,11.8211322 C74.3036805,11.3076002 74.0410125,10.908054 73.6374123,10.6244011 C73.1930349,10.3132058 72.6874914,10.1579658 72.122332,10.1579658 C71.0447136,10.1579658 70.2701829,10.5433234 69.7989782,11.3139195 C69.4753827,11.8409247 69.3138235,12.7405298 69.3138235,14.0110654 L69.3138235,16.7084497 C69.3138235,17.3038941 69.3543623,17.7098789 69.4353208,17.9256887 C69.5168755,18.1422139 69.6650808,18.2503573 69.8818445,18.2503573 C69.9896301,18.2503573 70.1384316,18.2267494 70.3278912,18.179295 C70.5168738,18.1323177 70.67271,18.1079943 70.7944458,18.1079943 C71.2129499,18.1079943 71.4232751,18.3344158 71.4232751,18.787378 C71.4232751,19.2269862 71.1526185,19.4470883 70.6119017,19.4470883 C70.5036391,19.4470883 70.152024,19.406311 69.5571759,19.3252333 C69.2595729,19.2848137 68.9284658,19.2640673 68.5633776,19.2640673 C68.2794863,19.2640673 67.9008056,19.2917291 67.428051,19.3450258 C66.8323682,19.4128688 66.4947033,19.4470883 66.4133871,19.4470883 C65.8456046,19.4470883 65.5615941,19.2167322 65.5615941,18.7568546 C65.5615941,18.3246388 65.7816962,18.1079943 66.2227352,18.1079943 C66.2916513,18.1079943 66.4192295,18.1285022 66.6047544,18.1692796 C66.7908754,18.2098184 66.9733003,18.2298494 67.1521482,18.2298494 C67.5656446,18.2298494 67.7791891,17.837934 67.79302,17.0538647 L67.79302,11.6381112 C67.7651197,11.1785912 67.7064576,10.8644151 67.6171528,10.6949865 C67.5274904,10.5263925 67.3723697,10.4416186 67.1521482,10.4416186 C67.0559281,10.4416186 66.9143997,10.4620072 66.7288748,10.5027846 C66.542873,10.5433234 66.4020601,10.5631159 66.3054822,10.5631159 C65.8095965,10.5631159 65.5615941,10.3437291 65.5615941,9.90459788 C65.5615941,9.45139725 65.865874,9.22497578 66.4743146,9.22497578 C66.55575,9.22497578 66.6231161,9.23224893 66.6773666,9.24500675 L67.428051,9.32608447 C67.6437416,9.32608447 67.8333204,9.3097497 67.995595,9.27553013 C68.3472101,9.24202595 68.5295157,9.22497578 68.5432274,9.22497578 C68.9350236,9.22497578 69.1312793,9.43088935 69.1312793,9.84378959" id="Fill-8" fill="#515251"></path>
                <path d="M83.8150514,10.2184164 C83.2199647,10.2184164 82.7129905,10.394522 82.2941287,10.7463754 C81.8747899,11.0976327 81.6447915,11.536764 81.6044911,12.0640077 L81.6044911,12.1857435 C81.6044911,12.7810686 81.8073046,13.2612157 82.2126932,13.6259462 C82.6184396,13.9912729 83.1459217,14.1735785 83.7947819,14.1735785 C84.4705886,14.1735785 85.0220364,13.9912729 85.4479329,13.6259462 C85.8737102,13.2612157 86.0866584,12.7940649 86.0866584,12.2262824 C86.0866584,11.6452651 85.8702525,11.165118 85.4370828,10.7861989 C85.004867,10.4079952 84.4642693,10.2184164 83.8150514,10.2184164 M83.8254246,18.0879634 C82.7399369,18.0879634 81.88564,18.2503573 81.2619377,18.5744297 C80.6384738,18.8990983 80.3268015,19.3388257 80.3268015,19.8927774 C80.3268015,20.4468482 80.6314391,20.8834756 81.2419067,21.2011095 C81.8521358,21.5187434 82.6725709,21.6777988 83.7029733,21.6777988 C84.7879841,21.6777988 85.6458579,21.5152857 86.2764757,21.1913325 C86.9072127,20.8664254 87.2223427,20.4332558 87.2223427,19.8927774 C87.2223427,19.3252333 86.9235475,18.8821674 86.327507,18.5645335 C85.7301549,18.2467803 84.8962467,18.0879634 83.8254246,18.0879634 M83.7541239,8.88039545 C84.1056196,8.88039545 84.5049274,8.93440752 84.9507357,9.04267013 C85.0184594,7.71716857 85.7890555,7.0548351 87.2628816,7.0548351 C87.8846762,7.0548351 88.4054814,7.21722902 88.8245817,7.54130145 C89.2433243,7.86597004 89.4531725,8.27839335 89.4531725,8.77833291 C89.4531725,9.10323996 89.3484868,9.38033501 89.1394732,9.6102142 C88.9291481,9.84033186 88.6829341,9.955033 88.3985659,9.955033 C88.1820407,9.955033 87.9930581,9.88075149 87.8309026,9.73195002 C87.6686279,9.58314855 87.5873117,9.40740066 87.5873117,9.20434865 C87.5873117,8.98865806 87.7358747,8.76557509 88.0332392,8.53545743 C87.8175486,8.26492014 87.539619,8.12959188 87.2020733,8.12959188 C86.4848931,8.12959188 86.1202819,8.57623475 86.1069279,9.46856665 C87.1343496,10.1579658 87.6487162,11.0840403 87.6487162,12.2470287 C87.6487162,13.1798995 87.2945973,13.9570533 86.5874326,14.5788479 C85.8806256,15.2012387 84.9969977,15.5119571 83.9365487,15.5119571 C83.1884875,15.5119571 82.4131221,15.3368054 81.6112873,14.9847135 C81.3940467,14.8899241 81.2103103,14.8431851 81.0605549,14.8431851 C80.8702607,14.8431851 80.7004744,14.9270052 80.5508383,15.0967915 C80.4014407,15.2653855 80.3268015,15.4648605 80.3268015,15.6949782 C80.3268015,16.398089 81.0395701,16.7489886 82.4659419,16.7489886 L83.2001722,16.7489886 C84.4906196,16.7489886 85.5368799,16.8707244 86.3385955,17.1130037 C87.0857029,17.342406 87.6767357,17.7001018 88.1115746,18.1848989 C88.5460558,18.6699345 88.7632964,19.2155399 88.7632964,19.822192 C88.7632964,20.8058556 88.3074727,21.5844402 87.3945137,22.156992 C86.4821508,22.7296631 85.2485771,23.0158198 83.6936733,23.0158198 C82.1382925,23.0158198 80.9183112,22.7452825 80.0324178,22.2048041 C79.1467629,21.6643256 78.7038163,20.9204375 78.7038163,19.9740935 C78.7038163,18.8785904 79.3190531,18.1015558 80.5498845,17.6413205 C79.4273157,17.2091047 78.8666871,16.5601252 78.8666871,15.6949782 C78.8666871,14.7483958 79.4273157,14.0995355 80.5498845,13.747682 C80.198031,13.2746889 80.0225216,12.7197834 80.0225216,12.0845156 C80.0225216,11.165118 80.3772366,10.4008412 81.0875013,9.79275832 C81.7969314,9.18431769 82.6860441,8.88039545 83.7541239,8.88039545" id="Fill-9" fill="#515251"></path>
                <path d="M93.5904018,9.80325073 L93.5904018,10.3603024 C94.2933934,9.37377725 95.2329411,8.88039545 96.4085681,8.88039545 C97.3552698,8.88039545 98.1231235,9.14723655 98.710937,9.68151491 C99.2999429,10.215674 99.5932535,10.9014962 99.5932535,11.739816 C99.5932535,12.3346642 99.4442135,12.818269 99.147326,13.189915 C98.8504384,13.5616802 98.4581653,13.747682 97.9705067,13.747682 C97.6605036,13.747682 97.3958087,13.6528926 97.1799988,13.4635523 C96.964189,13.2746889 96.8556879,13.0446905 96.8556879,12.7740339 C96.8556879,12.5582241 96.9367657,12.3650684 97.0989211,12.1964744 C97.2610766,12.0269265 97.4506554,11.942868 97.6664652,11.942868 C97.7081964,11.942868 97.7952357,11.962899 97.9299678,12.0034379 C98.0122378,11.8409247 98.0527767,11.6928386 98.0527767,11.5575104 C98.0527767,11.165118 97.8798904,10.8340109 97.53531,10.5631159 C97.1907297,10.2931748 96.7614947,10.1579658 96.247605,10.1579658 C95.1924023,10.1579658 94.4889338,10.6315551 94.1371995,11.5775413 C93.9213897,12.1585586 93.8137233,13.0374173 93.8137233,14.2141174 L93.8137233,15.552496 C93.8137233,16.4583011 93.8201618,16.9655138 93.8339927,17.0738957 C93.9023126,17.8443725 94.1133532,18.2298494 94.4686644,18.2298494 C94.64632,18.2298494 94.8299372,18.2069569 95.0207083,18.1606949 C95.1709405,18.1257599 95.3009033,18.1079943 95.4094044,18.1079943 C95.8469857,18.1079943 96.0651801,18.3215388 96.0651801,18.747793 C96.0651801,19.2142283 95.7873697,19.4470883 95.2329411,19.4470883 L95.1518634,19.4470883 C94.9491691,19.4470883 94.6415507,19.4228843 94.2290081,19.3757876 C93.8165848,19.3288102 93.5088472,19.3046062 93.3066298,19.3046062 C92.7653168,19.3046062 92.3395395,19.3180794 92.0285825,19.3450258 L90.8930175,19.4470883 C90.3383505,19.4470883 90.0608977,19.2104129 90.0608977,18.7368236 C90.0608977,18.318081 90.3205849,18.1079943 90.8392439,18.1079943 C90.975526,18.1079943 91.0773501,18.115029 91.1461469,18.1285022 L91.4534076,18.1890721 C91.5895705,18.2163762 91.6848368,18.2298494 91.7396835,18.2298494 C92.0810446,18.2298494 92.2653772,17.9191309 92.2924428,17.2967402 L92.2924428,16.2625223 L92.2311576,11.6588575 C92.1909765,10.8609573 91.9882821,10.4620072 91.6230747,10.4620072 C91.5146929,10.4620072 91.3658914,10.4792959 91.1767895,10.5125616 C90.9875684,10.5467812 90.8387669,10.5631159 90.730862,10.5631159 C90.2845769,10.5631159 90.0608977,10.3502869 90.0608977,9.92439039 C90.0608977,9.45795501 90.3520621,9.22497578 90.9335563,9.22497578 C91.0684077,9.22497578 91.271102,9.24202595 91.5417585,9.27553013 C91.812415,9.3097497 92.0153478,9.32608447 92.1507953,9.32608447 C92.2583425,9.32608447 92.4345673,9.3097497 92.6778005,9.27553013 C92.7857054,9.24202595 92.9141182,9.22497578 93.0630389,9.22497578 C93.4148924,9.22497578 93.5904018,9.41813154 93.5904018,9.80325073" id="Fill-10" fill="#515251"></path>
                <path d="M102.330819,12.8753811 C102.330819,13.0653176 102.481051,13.1593916 102.779131,13.1593916 L107.643795,13.1593916 C107.928759,13.1593916 108.071837,13.0653176 108.071837,12.8753811 C108.071837,12.1585586 107.799988,11.536764 107.257483,11.0097588 C106.714978,10.4827536 106.077087,10.2184164 105.34381,10.2184164 C104.584303,10.2184164 103.891565,10.4927691 103.267982,11.0398053 C102.643207,11.5875568 102.330819,12.1993359 102.330819,12.8753811 M109.693392,13.3865284 C109.693392,13.8988681 109.660007,14.2120905 109.592045,14.3266724 C109.524082,14.4407773 109.32735,14.4984856 109.001846,14.4984856 L102.535898,14.4984856 C102.359435,14.4984856 102.24378,14.5217358 102.190125,14.5697863 C102.135279,14.6165252 102.109048,14.6947414 102.109048,14.8039578 C102.109048,15.8230333 102.413089,16.6727994 103.023557,17.3523023 C103.634024,18.0316859 104.393532,18.3713777 105.302079,18.3713777 C105.898239,18.3713777 106.444321,18.2098184 106.939134,17.8849114 C107.433946,17.560362 107.755873,17.1486541 107.904913,16.6478799 L108.087337,16.0597087 C108.182723,15.735517 108.406879,15.5732424 108.758613,15.5732424 C109.26058,15.5732424 109.510967,15.8303064 109.510967,16.3438384 C109.510967,17.2226971 109.065039,18.0039048 108.173184,18.6865077 C107.280137,19.3686337 106.266666,19.7104717 105.130385,19.7104717 C103.711525,19.7104717 102.581206,19.2340208 101.743005,18.2804037 C100.904805,17.3272635 100.486301,16.0468317 100.486301,14.4372004 C100.486301,12.7875071 100.932228,11.4492478 101.824083,10.4215876 C102.71713,9.39380822 103.879642,8.88039545 105.314002,8.88039545 C106.583823,8.88039545 107.631871,9.30462272 108.456956,10.1537927 C109.280849,11.002128 109.693392,12.0796271 109.693392,13.3865284" id="Fill-11" fill="#515251"></path>
                <path d="M115.461833,8.88039545 C116.364419,8.88039545 117.119157,9.11671317 117.726048,9.58946784 L117.726048,9.50910551 C117.726048,9.00845056 117.941858,8.7585404 118.37467,8.7585404 C118.820597,8.7585404 119.043561,8.97494639 119.043561,9.40740066 C119.043561,9.48859762 119.031638,9.69153039 119.010176,10.0156028 C118.964868,10.2862593 118.942214,10.5567966 118.942214,10.8267378 C118.942214,10.9892509 118.958906,11.2264033 118.992291,11.536764 C119.025676,11.8480786 119.043561,12.0845156 119.043561,12.2470287 C119.043561,12.7605607 118.824174,13.0176248 118.384208,13.0176248 C117.95855,13.0176248 117.737971,12.8010996 117.726048,12.3688838 L117.726048,11.6992772 C117.71174,11.2931731 117.478046,10.9457312 117.02258,10.6544476 C116.567114,10.3637601 116.034147,10.2184164 115.423679,10.2184164 C114.798904,10.2184164 114.275475,10.3781872 113.854587,10.6949865 C113.432506,11.013455 113.222657,11.4087089 113.222657,11.881702 C113.222657,12.7469683 113.820009,13.2612157 115.013521,13.422775 L116.193918,13.5854073 C118.498671,13.8964835 119.652836,14.8493852 119.652836,16.4448279 C119.652836,17.418476 119.280833,18.2063607 118.53921,18.8080051 C117.79878,19.4092918 116.827039,19.7104717 115.627566,19.7104717 C114.507978,19.7104717 113.538622,19.3928378 112.715922,18.7568546 L112.715922,19.1429276 C112.715922,19.6291555 112.485804,19.8727464 112.026761,19.8727464 C111.525987,19.8727464 111.2756,19.5951744 111.2756,19.0409843 C111.2756,19.1357737 111.316139,18.7845164 111.397216,17.9862585 C111.42464,17.7973951 111.437755,17.6078163 111.437755,17.418476 C111.437755,17.0936882 111.410332,16.7897659 111.356677,16.5061131 C111.303023,16.2219834 111.2756,15.9984235 111.2756,15.8368642 C111.2756,15.3636326 111.492602,15.1265995 111.924221,15.1265995 C112.209186,15.1265995 112.388034,15.1950386 112.461958,15.3296515 C112.535881,15.4648605 112.579997,15.8230333 112.594305,16.404289 C112.607421,16.9862602 112.911462,17.4590148 113.507622,17.82458 C114.101397,18.1890721 114.85852,18.3713777 115.77899,18.3713777 C116.440728,18.3713777 116.988002,18.2025453 117.420814,17.8651189 C117.853626,17.5267386 118.070628,17.1008421 118.070628,16.5873101 C118.070628,15.6680318 117.339737,15.1337534 115.879145,14.9847135 C114.487708,14.835912 113.425352,14.5625131 112.695652,14.163563 C111.96476,13.7649706 111.599911,13.0653176 111.599911,12.0640077 C111.599911,11.1180214 111.957606,10.3502869 112.671806,9.76199647 C113.386005,9.17454067 114.316014,8.88039545 115.461833,8.88039545" id="Fill-12" fill="#515251"></path>
                <path d="M125.440355,8.88039545 C126.342941,8.88039545 127.097679,9.11671317 127.70457,9.58946784 L127.70457,9.50910551 C127.70457,9.00845056 127.92038,8.7585404 128.353192,8.7585404 C128.799119,8.7585404 129.022083,8.97494639 129.022083,9.40740066 C129.022083,9.48859762 129.01016,9.69153039 128.988698,10.0156028 C128.94339,10.2862593 128.920736,10.5567966 128.920736,10.8267378 C128.920736,10.9892509 128.937428,11.2264033 128.970813,11.536764 C129.004198,11.8480786 129.022083,12.0845156 129.022083,12.2470287 C129.022083,12.7605607 128.802696,13.0176248 128.36273,13.0176248 C127.937072,13.0176248 127.716493,12.8010996 127.70457,12.3688838 L127.70457,11.6992772 C127.690262,11.2931731 127.456567,10.9457312 127.001101,10.6544476 C126.545635,10.3637601 126.012668,10.2184164 125.402201,10.2184164 C124.776233,10.2184164 124.253997,10.3781872 123.833108,10.6949865 C123.411027,11.013455 123.201179,11.4087089 123.201179,11.881702 C123.201179,12.7469683 123.798531,13.2612157 124.992043,13.422775 L126.172439,13.5854073 C128.477193,13.8964835 129.630166,14.8493852 129.630166,16.4448279 C129.630166,17.418476 129.259354,18.2063607 128.517732,18.8080051 C127.776109,19.4092918 126.805561,19.7104717 125.606087,19.7104717 C124.486499,19.7104717 123.517144,19.3928378 122.694443,18.7568546 L122.694443,19.1429276 C122.694443,19.6291555 122.464326,19.8727464 122.005283,19.8727464 C121.504508,19.8727464 121.254121,19.5951744 121.254121,19.0409843 C121.254121,19.1357737 121.29466,18.7845164 121.375738,17.9862585 C121.403161,17.7973951 121.416277,17.6078163 121.416277,17.418476 C121.416277,17.0936882 121.388853,16.7897659 121.335199,16.5061131 C121.281545,16.2219834 121.254121,15.9984235 121.254121,15.8368642 C121.254121,15.3636326 121.469931,15.1265995 121.902743,15.1265995 C122.186515,15.1265995 122.365363,15.1950386 122.440479,15.3296515 C122.514403,15.4648605 122.558519,15.8230333 122.572827,16.404289 C122.585942,16.9862602 122.889984,17.4590148 123.484951,17.82458 C124.079919,18.1890721 124.837041,18.3713777 125.75632,18.3713777 C126.419249,18.3713777 126.966524,18.2025453 127.399336,17.8651189 C127.832148,17.5267386 128.04915,17.1008421 128.04915,16.5873101 C128.04915,15.6680318 127.318258,15.1337534 125.857667,14.9847135 C124.465038,14.835912 123.403873,14.5625131 122.674174,14.163563 C121.943282,13.7649706 121.578432,13.0653176 121.578432,12.0640077 C121.578432,11.1180214 121.936128,10.3502869 122.650327,9.76199647 C123.364527,9.17454067 124.293344,8.88039545 125.440355,8.88039545" id="Fill-13" fill="#515251"></path>
                <path d="M135.937536,12.0439767 C135.937536,12.7065486 135.849304,13.2035074 135.674033,13.534853 C135.49757,13.8659601 135.173259,14.1601053 134.699908,14.4171694 C135.160143,14.6600449 135.480877,14.9614632 135.664495,15.319636 C135.846919,15.6778088 135.937536,16.1748868 135.937536,16.8102738 L135.937536,20.075083 C135.937536,20.8187327 136.066306,21.3096106 136.322655,21.5459283 C136.580196,21.7823653 137.100047,21.9006434 137.884593,21.9006434 L137.884593,23.1784521 L137.29678,23.1784521 C136.269001,23.1784521 135.538109,22.9520307 135.106489,22.4989493 C134.673677,22.0459871 134.456675,21.2788487 134.456675,20.1969381 L134.456675,16.8509319 C134.456675,16.2696762 134.369636,15.8368642 134.193172,15.552496 C134.016709,15.2688432 133.719821,15.0731836 133.301317,14.9642056 L133.301317,13.7674745 C134.071556,13.5517839 134.456675,12.9499011 134.456675,11.962899 L134.456675,8.39297525 C134.456675,7.40645012 134.683216,6.69642387 135.136297,6.2636119 C135.589378,5.83115763 136.315501,5.61475164 137.315857,5.61475164 L137.884593,5.61475164 L137.884593,6.89232196 C137.100047,6.90603363 136.580196,7.02765022 136.322655,7.25764865 C136.066306,7.48776631 135.937536,7.95420168 135.937536,8.65731248 L135.937536,12.0439767" id="Fill-14" fill="#515251"></path>
                <path d="M143.071183,16.7489886 C143.071183,16.1002476 143.159415,15.6065081 143.334686,15.2688432 C143.511149,14.9307014 143.834268,14.6335754 144.308811,14.3766305 C143.848575,14.1330397 143.527841,13.8324559 143.344224,13.4740447 C143.161799,13.1158719 143.071183,12.6189132 143.071183,11.9834069 L143.071183,8.71776308 C143.071183,7.97423265 142.942413,7.48430858 142.686064,7.247037 C142.428523,7.01131544 141.908672,6.89232196 141.124125,6.89232196 L141.124125,5.61475164 L141.692862,5.61475164 C142.719449,5.61475164 143.452725,5.84117311 143.892691,6.29401605 C144.331465,6.74697822 144.552044,7.51507042 144.552044,8.59602726 L144.552044,11.942868 C144.552044,13.0105901 144.937163,13.6394194 145.707401,13.8287597 L145.707401,15.0254908 C144.937163,15.242016 144.552044,15.8437797 144.552044,16.8303048 L144.552044,20.3999901 C144.552044,21.3871114 144.32908,22.0965414 143.88196,22.5293534 C143.436033,22.9618077 142.706333,23.1784521 141.692862,23.1784521 L141.124125,23.1784521 L141.124125,21.9006434 C141.908672,21.8871701 142.428523,21.7653151 142.686064,21.5359128 C142.942413,21.3059144 143.071183,20.839479 143.071183,20.1363682 L143.071183,16.7489886" id="Fill-15" fill="#515251"></path>
                <path d="M151.0013,12.8553501 C150.649566,12.8553501 150.352678,12.7307527 150.108253,12.4798887 C149.866212,12.2298593 149.744595,11.9293948 149.744595,11.5775413 C149.744595,11.2264033 149.866212,10.9249849 150.108253,10.675194 C150.352678,10.4250453 150.649566,10.2997326 151.0013,10.2997326 C151.353034,10.2997326 151.653499,10.4250453 151.903886,10.675194 C152.153081,10.9249849 152.279466,11.2264033 152.279466,11.5775413 C152.279466,11.9293948 152.153081,12.2298593 151.903886,12.4798887 C151.653499,12.7307527 151.353034,12.8553501 151.0013,12.8553501 M151.467497,20.0552905 C151.467497,19.8252921 151.353034,19.7104717 151.122917,19.7104717 L150.717528,19.7104717 C150.406333,19.7104717 150.146407,19.5951744 149.936559,19.3657722 C149.72671,19.1357737 149.621786,18.8523594 149.621786,18.5139791 C149.621786,18.1215868 149.756518,17.7939374 150.027175,17.5303156 C150.297831,17.2669322 150.63645,17.1343463 151.041839,17.1343463 C151.529497,17.1343463 151.920578,17.3236866 152.218658,17.7026057 C152.515546,18.0810479 152.664586,18.5744297 152.664586,19.1827511 C152.664586,20.2104113 152.265159,21.2716948 151.467497,22.3670787 C151.115763,22.8400719 150.818875,23.077105 150.575642,23.077105 C150.304985,23.077105 150.170253,22.9417767 150.170253,22.6712394 C150.170253,22.5766885 150.223908,22.454595 150.332409,22.3065089 C151.088339,21.3059144 151.467497,20.5553493 151.467497,20.0552905" id="Fill-16" fill="#1B1A18"></path>
                <path d="M18.3871163,12.5104121 C18.3871163,12.7007063 18.5367524,12.7947803 18.8349515,12.7947803 L23.6991381,12.7947803 C23.9844601,12.7947803 24.1270615,12.7007063 24.1270615,12.5104121 C24.1270615,11.7940666 23.8553319,11.1721527 23.3125881,10.6451475 C22.7700827,10.1181423 22.132311,9.85404354 21.3997499,9.85404354 C20.639527,9.85404354 19.9475048,10.1281578 19.3232063,10.675194 C18.6990271,11.2228263 18.3871163,11.8346054 18.3871163,12.5104121 M25.7493314,13.0220364 C25.7493314,13.5338991 25.7155887,13.8473599 25.6476265,13.9621803 C25.5797836,14.0760468 25.3832893,14.1335166 25.0580246,14.1335166 L18.5914799,14.1335166 C18.4148974,14.1335166 18.2992424,14.157363 18.2452303,14.2050558 C18.1909798,14.2519139 18.1640334,14.3303685 18.1640334,14.4393465 C18.1640334,15.458422 18.4692671,16.3081881 19.0792578,16.987691 C19.6893677,17.6669554 20.4485175,18.0067664 21.3574226,18.0067664 C21.9535823,18.0067664 22.4990685,17.8450879 22.9938811,17.5203001 C23.4889321,17.1956315 23.8112161,16.7839236 23.9604945,16.2832686 L24.1433963,15.6949782 C24.2381857,15.3707865 24.4618648,15.2085118 24.8143145,15.2085118 C25.315804,15.2085118 25.566668,15.4655759 25.566668,15.9791079 C25.566668,16.8579666 25.1206213,17.6392936 24.2284087,18.3215388 C23.3359575,19.0041417 22.3218898,19.3459796 21.1859671,19.3459796 C19.7663915,19.3459796 18.6373842,18.8692903 17.7990644,17.9156732 C16.9606253,16.9627715 16.541525,15.6822204 16.541525,14.0723506 C16.541525,12.4228958 16.9880487,11.0845172 17.8802613,10.0568571 C18.7725932,9.02919692 19.9352239,8.51542646 21.3685112,8.51542646 C22.6395237,8.51542646 23.6875726,8.94024989 24.5120615,9.78906212 C25.3369081,10.637159 25.7493314,11.7148965 25.7493314,13.0220364" id="Fill-17" fill="#D7167D"></path>
            </g>
        </g>
    </g>
</svg>