<?xml version="1.0" encoding="UTF-8" standalone="no"?>
<svg width="110px" height="44px" viewBox="0 0 110 44" version="1.1" xmlns="http://www.w3.org/2000/svg" xmlns:xlink="http://www.w3.org/1999/xlink">
    <!-- Generator: Sketch 42 (36781) - http://www.bohemiancoding.com/sketch -->
    <title>Group 2</title>
    <desc>Created with Sketch.</desc>
    <defs></defs>
    <g id="Page-1" stroke="none" stroke-width="1" fill="none" fill-rule="evenodd">
        <g id="Group-2" transform="translate(2.000000, 2.000000)">
            <path d="M61.7196264,17 C61.8668133,19.3203579 61.9404056,21.2207718 61.9404056,22.7012987 C61.9404056,23.2640721 61.9317477,23.7619026 61.9144316,24.1948052 C61.7672447,26.8614852 61.2520983,29.2077821 60.368977,31.2337662 C59.8408359,32.4285774 59.1482021,33.3549751 58.291055,34.012987 C57.4252498,34.670999 56.4685494,35 55.4209251,35 C53.6719986,35 52.074612,34.1428657 50.6287173,32.4285714 C49.3559837,30.9134123 48.2564276,28.8788006 47.330016,26.3246753 L47.2001459,25.961039 C47.1820998,25.911725 47.1616423,25.8675542 47.1476912,25.8178621 C47.0705643,25.5431457 46.7750376,25.247619 47.330016,24.0655123 C47.5786644,23.5358899 48.090474,23.1789322 48.8437245,23.1789322 C49.3978398,23.1789322 49.9880215,23.0155821 50.6287173,23.4744589 C51.2347809,23.9073615 51.5392499,24.1457406 51.7989915,24.6565657 C51.8422817,24.8470428 51.7989915,25.1558432 51.7989915,25.3376623 C51.7989915,25.8138552 51.8324708,25.8744566 51.5034648,26.3246753 C51.6506517,27.1471903 52.2131276,27.6320284 53.278068,28.8701299 L53.4339121,29.038961 C54.412272,30.19914 55.1438664,30.7792208 55.6287173,30.7792208 C55.8798008,30.7792208 56.0962489,30.6190492 56.278068,30.2987013 C56.7456028,29.4588703 57.1178934,28.0129973 57.3949511,25.961039 L57.4858602,25.3376623 C57.8581564,22.7056145 58.0443017,20.5627788 58.0443017,18.9090909 C58.0443017,18.2424209 58.013999,17.6536822 57.9533926,17.1428571 C57.9014443,16.7012965 57.8062072,16.0043338 57.6676783,15.0519481 C57.3819626,13.0865703 57.2391069,11.3896175 57.2391069,9.96103896 C57.2391069,8.39393156 57.4122654,7.15151974 57.7585874,6.23376623 C58.0789354,5.4112513 58.563779,5 59.2131329,5 C60.6936598,5 61.4555569,6.40691234 61.4988472,9.22077922 L61.5248212,10.5714286 C61.5594534,13.4199277 61.6243878,15.5627634 61.7196264,17 Z M68.4671589,26.4025974 C68.1814431,26.9480547 68.0385874,27.5714251 68.0385874,28.2727273 L68.0385874,28.4545455 C68.0559035,29.2424282 68.229062,29.9090882 68.558068,30.4545455 C68.8610998,30.9653705 69.2247325,31.2207792 69.648977,31.2207792 C70.1251699,31.2207792 70.6316583,30.9004361 71.1684576,30.2597403 C71.7225729,29.6017283 72.0342581,28.7575809 72.1035225,27.7272727 C72.1121805,27.5887439 72.1165095,27.4545461 72.1165095,27.3246753 C72.1165095,26.4588701 71.9173773,25.7099599 71.5191069,25.0779221 C71.2853395,24.7142839 70.9779833,24.5324675 70.597029,24.5324675 C70.1468103,24.5324675 69.6879404,24.7489156 69.2204056,25.1818182 C68.7701869,25.5887466 68.5191072,25.995669 68.4671589,26.4025974 Z M70.9476783,21.1688312 C72.3243086,21.1688312 73.4238647,21.6883065 74.2463796,22.7272727 C75.0688946,23.766239 75.4801459,25.1558355 75.4801459,26.8961039 C75.4801459,28.9480622 74.9520126,30.7662258 73.8957303,32.3506494 C72.7009191,34.1168919 71.1771248,35 69.3243017,35 C68.9606635,35 68.5883729,34.9610394 68.2074186,34.8831169 C66.7442078,34.5974012 65.6836124,33.6753325 65.0256004,32.1168831 C64.5840398,31.0606008 64.3632628,29.8441627 64.3632628,28.4675325 C64.3632628,28.1212104 64.3762496,27.7662356 64.4022238,27.4025974 C64.5407526,25.506484 65.1857678,23.9956766 66.3372887,22.8701299 C67.4801516,21.7359251 68.9390115,21.1688312 70.7139121,21.1688312 L70.9476783,21.1688312 Z M87.0848212,29.4805195 C87.5004077,29.0822491 87.8813563,28.4632077 88.2276783,27.6233766 C88.4527877,27.0865774 88.5653407,26.6363655 88.5653407,26.2727273 C88.5653407,25.9696955 88.4830904,25.7316026 88.3185874,25.5584416 C87.8770268,25.4805191 87.4571176,25.4415584 87.0588472,25.4415584 C85.690875,25.4415584 84.578332,25.9047573 83.7211848,26.8311688 C82.6908767,27.9220834 82.1670724,29.4848383 82.1497563,31.5194805 C84.4095078,31.1645004 86.054513,30.4848535 87.0848212,29.4805195 Z M92.1367692,24.5584416 C92.1367692,24.792209 92.1237824,25.0432887 92.0978082,25.3116883 C91.9419633,26.9480601 91.5177251,28.3376566 90.8250809,29.4805195 C89.9765918,30.9177561 88.8770357,32.1212073 87.5263796,33.0909091 C86.0978011,34.1125592 84.5956516,34.7272717 83.0198861,34.9350649 C82.6995382,34.9783552 82.392182,35 82.0978082,35 C81.0675,35 80.1973789,34.7402623 79.4874186,34.2207792 C78.5869812,33.5541092 78.1367692,32.5714351 78.1367692,31.2727273 C78.1367692,31.1688306 78.1410982,31.0606066 78.1497563,30.9480519 L78.1497563,30.6493506 C78.1497563,29.9567065 78.1107956,28.454557 78.0328731,26.1428571 C77.9722668,24.4199048 77.9419641,22.9047684 77.9419641,21.5974026 C77.9419641,20.7575716 77.9549509,20.0043323 77.9809251,19.3376623 C78.1887183,13.7012705 79.2752876,10.8831169 81.2406654,10.8831169 L81.3965095,10.8831169 C82.0545215,10.8831169 82.3835225,11.3333288 82.3835225,12.2337662 C82.3835225,12.5887464 82.331575,13.0129845 82.2276783,13.5064935 C82.1237817,13.9913444 81.9419654,14.6580044 81.6822238,15.5064935 C81.4571144,16.251086 81.3359035,16.69264 81.3185874,16.8311688 C81.1973747,18.02598 81.1367692,19.134194 81.1367692,20.1558442 C81.1367692,21.7229516 81.279625,23.0865743 81.5653407,24.2467532 C82.6302811,22.9567035 83.9982328,22.1601747 85.6692368,21.8571429 C86.1800618,21.7619043 86.7514847,21.7142857 87.3835225,21.7142857 C88.3099341,21.7142857 89.3618716,21.8138518 90.5393667,22.012987 C91.604307,22.1861481 92.1367692,23.0346244 92.1367692,24.5584416 Z M97.6115744,25.4935065 L97.7154705,25.5844156 C98.122399,25.6969703 100.182984,26.4328936 103.897289,27.7922078 C105.256603,28.2943748 106.191658,28.8614687 106.702484,29.4935065 C107.040148,29.909093 107.208977,30.3722918 107.208977,30.8831169 C107.208977,31.3333356 107.079108,31.8181792 106.819367,32.3376623 C106.533651,32.8917777 105.815043,33.4025951 104.663522,33.8701299 C103.589924,34.3030325 102.360499,34.6190466 100.975211,34.8181818 C100.152696,34.9393945 99.3994567,35 98.7154705,35 C98.2306196,35 97.7760787,34.9696973 97.3518342,34.9090909 C96.2176294,34.753246 95.5423115,34.3982712 95.3258602,33.8441558 C95.1094089,33.3160147 95.0011848,32.8355 95.0011848,32.4025974 C95.0011848,32.0735914 95.0617903,31.7705642 95.183003,31.4935065 C95.3821382,31.0259717 95.6938234,30.7922078 96.118068,30.7922078 C96.3431773,30.7922078 96.594257,30.8528132 96.8713147,30.974026 C98.1527064,31.5194832 99.2652494,31.7922078 100.208977,31.7922078 C101.213311,31.7922078 102.022827,31.4805226 102.637548,30.8571429 C102.481704,30.8571429 100.728474,30.3376675 97.3778082,29.2987013 C94.8756312,28.5281347 93.6245615,27.5064999 93.6245615,26.2337662 C93.5985873,26.0519471 93.5856004,25.8744597 93.5856004,25.7012987 C93.5856004,24.4372231 94.3215238,23.3506539 95.7933926,22.4415584 C97.1700229,21.5930694 98.5466325,21.1688312 99.9232628,21.1688312 L100.157029,21.1688312 C100.650538,21.1688312 101.105079,21.294371 101.520665,21.5454545 C101.910278,21.7792219 102.178673,22.0692623 102.32586,22.4155844 C102.386467,22.5714294 102.416769,22.718614 102.416769,22.8571429 C102.416769,23.0562781 102.360493,23.2424234 102.247938,23.4155844 C102.022829,23.7532484 101.60292,23.9956703 100.988198,24.1428571 C99.4903548,24.3852826 98.7371156,24.5064935 98.7284576,24.5064935 C97.9146007,24.7056287 97.5076783,24.9437216 97.5076783,25.2207792 C97.5076783,25.3419919 97.54231,25.4329001 97.6115744,25.4935065 Z" id="Jobs" fill="#05AFEB"></path>
            <g id="Group-Copy">
                <path d="M1.13164372,0.910554566 C1.13921805,0.924383852 1.59451967,0.617978743 1.6016732,0.631375864 C1.63533691,0.691014658 0.0581923047,3.51521407 0.0926976029,3.5757172 C0.148663513,3.67554735 5.37242902,0.293422697 5.43596927,0.407082138 C5.53106923,0.576490887 0.19368872,5.38303196 0.284159928,5.54422957 C0.40745325,5.76290514 9.14318484,0.0626464943 9.2395472,0.234216069 C9.35737017,0.443816178 1.14889636,6.84547891 1.2587242,7.0403854 C1.42746353,7.34117236 12.6568341,-0.0527416073 12.7982217,0.198346359 C12.9682234,0.500861981 -0.139581965,9.54651125 0.0451476188,9.87495678 C0.285843113,10.3028003 16.2113006,-0.253698413 16.4402138,0.153401181 C16.6935332,0.604581623 1.18171848,10.4462791 1.43630025,10.8987561 C1.68330769,11.3382681 18.3438964,0.264899796 18.6005821,0.72126622 C18.9157586,1.28178445 -0.237206711,13.384138 0.00222639427,13.810685 C0.247129852,14.2463075 21.2457078,0.526359726 21.5360572,1.04279711 C21.8937341,1.67980858 -0.21111734,14.9909281 0.157921032,15.6478192 C0.567355851,16.3768818 24.9314627,0.10154136 25.292506,0.744170974 C25.676693,1.42785628 1.35172019,15.8323537 1.7396944,16.5225215 C2.10073764,17.1647189 28.4371169,-0.188873637 28.80868,0.47233908 C29.1566786,1.09119961 1.67615415,17.5899695 2.14912922,18.4318272 C2.65618878,19.3341881 32.7199818,-0.61844582 33.1096392,0.0738827888 C33.6196443,0.98186182 1.7161298,19.4413651 2.25937785,20.4068221 C2.74329362,21.2681273 33.9941531,0.290829706 34.5411883,1.26493001 C35.0600301,2.18717049 1.05169241,22.1631413 1.44892414,22.8701636 C1.93199831,23.7297401 39.4716588,-0.87731276 39.9787183,0.0241837938 C40.5131296,0.975379343 1.84573507,23.4082092 2.37509684,24.349465 C3.00208335,25.4653154 38.0771398,1.69277353 38.7041263,2.80862401 C39.3319544,3.92533882 0.576192574,25.7289362 1.22295652,26.8806564 C1.77251651,27.8577818 37.6466651,4.22785444 38.0918676,5.01914888 C38.556006,5.84501653 0.642678392,27.9005662 1.16194105,28.8245353 C1.6711046,29.7299214 39.0841053,5.01958104 39.6403981,6.00880713 C40.109586,6.84331808 0.725575267,29.3716565 1.38875027,30.5523317 C1.84825985,31.3691239 37.3815634,8.0045459 37.8898854,8.90906761 C38.4440741,9.89483638 0.325397968,31.9378533 0.850551774,32.8721944 C1.40305734,33.8545058 37.7320868,9.6960404 38.28333,10.6766232 C38.9103165,11.7920415 1.33699232,33.2615752 1.85751737,34.1877052 C2.50049414,35.3312142 39.5469813,10.7850966 39.991763,11.5759589 C40.6553588,12.7566342 1.00035526,35.1652628 1.65301035,36.3264906 C2.09148012,37.1061166 37.5675554,13.6140499 38.1650862,14.676744 C38.6372197,15.516441 0.221461277,38.0573121 0.740303138,38.9808491 C1.34246267,40.0513222 39.0445505,14.8902336 39.6256702,15.9239727 C40.1562944,16.869118 1.57810861,38.9406577 2.16091151,39.977422 C2.63388658,40.8192798 37.7682753,17.8341428 38.2029579,18.6068541 C38.6645714,19.4284001 6.83090906,38.1147901 7.21930407,38.8062544 C7.76171052,39.7704149 37.1210905,20.1177036 37.525055,20.8359621 C37.8536969,21.4202494 10.4375543,37.9401954 10.797756,38.5810963 C11.2951372,39.4657384 38.9885846,20.9396817 39.3790836,21.6341712 C39.7716865,22.3334144 13.4622383,38.1294837 13.8662027,38.8486066 C14.1889535,39.4233862 36.9616087,24.1714129 37.3760931,24.9086867 C37.7392403,25.5552058 15.6979291,38.9471402 16.0295166,39.5374778 C16.3501634,40.1075037 38.6208086,25.2868312 38.9810102,25.9285965 C39.2915579,26.4800393 20.7117172,38.0637946 20.9919676,38.5629454 C21.2911538,39.0940764 37.5860705,28.1391214 37.8322363,28.5773369 C38.027065,28.9235012 21.631578,39.5625434 21.8297731,39.914758 C22.0704686,40.3430337 39.5882193,28.878556 39.8015631,29.2584292 C40.0031245,29.6166941 26.7257382,38.493799 26.9580178,38.9069489 C27.1132917,39.1835346 37.9668911,32.0160752 38.120061,32.2883392 C38.2690229,32.5532565 28.5246425,39.5694581 28.6470942,39.7877015 C28.7851154,40.0327391 38.2988994,33.7758517 38.4205096,33.9927987 C38.5206591,34.1699864 32.8378048,38.9402256 32.9400583,39.1221671 C33.0208512,39.2665103 38.1789725,35.8333901 38.2555574,35.9699543 C38.3043698,36.0568195 36.6426451,38.8991699 36.6792544,38.9644268 C36.7167053,39.0314124 39.8465883,36.9898641 39.8869847,37.0620357" id="Stroke-7-Copy" stroke="#FFF100" stroke-width="2.236" stroke-linecap="round" stroke-linejoin="round"></path>
                <g id="Group" transform="translate(4.000000, 10.571429)">
                    <path d="M9.86981578,13.8818274 C9.9417492,13.2943274 9.9779238,12.5376607 9.9779238,11.6118274 C9.9779238,10.4189107 9.9321858,9.60849405 9.84362038,9.18141071 C9.68228995,8.29141071 9.29725908,7.59682738 8.68935937,7.09807738 C7.97335164,6.51057738 7.1508991,6.21682738 6.22033853,6.21682738 C4.9679487,6.21682738 3.98832373,6.68849405 3.2814636,7.63224405 C2.57460347,8.57641071 2.22158921,9.86682738 2.22158921,11.504744 C2.22158921,13.1964107 2.58832488,14.527244 3.32179621,15.4976607 C4.05526754,16.468494 5.05734572,16.953494 6.32761495,16.953494 C7.29393432,16.953494 8.09892327,16.6726607 8.74341338,16.1118274 C9.3870719,15.550994 9.76253936,14.8080774 9.86981578,13.8818274 M6.0328127,4.45391071 C7.79206281,4.45391071 9.10682265,5.13974405 9.9779238,6.51057738 L9.9779238,3.81307738 C9.9779238,3.10099405 9.9596286,2.66474405 9.92428559,2.50432738 C9.83488858,1.95266071 9.58624013,1.67641071 9.17792446,1.67641071 C9.03572083,1.67641071 8.835721,1.70307738 8.57875655,1.75641071 C8.32012891,1.80974405 8.12054487,1.83682738 7.97834124,1.83682738 C7.32096133,1.83682738 6.99247927,1.55224405 6.99247927,0.982244048 C6.99247927,0.394327381 7.43613795,0.100577381 8.32511851,0.100577381 C8.46732213,0.100577381 8.72470238,0.118494048 9.09850665,0.153910714 C9.66648955,0.207660714 9.9596286,0.234327381 9.9779238,0.234327381 C10.137591,0.234327381 10.3683601,0.211827381 10.6706467,0.167244048 C10.9725176,0.123077381 11.2032866,0.100577381 11.3633697,0.100577381 C11.8606665,0.100577381 12.1097308,0.457660714 12.1097308,1.17057738 L12.1097308,1.46474405 C12.0918514,1.51891071 12.073972,1.99141071 12.0565084,2.88307738 C12.0565084,2.98974405 12.0298972,3.67641071 11.976259,4.94266071 C11.9405002,5.83474405 11.9230366,6.51224405 11.9230366,6.97599405 L11.9230366,9.59724405 L11.9230366,14.0643274 C11.940916,15.2418274 11.99497,15.9730774 12.0860302,16.258494 C12.1762588,16.5439107 12.3928906,16.685994 12.7371731,16.685994 C12.9721001,16.685994 13.1529732,16.668494 13.280208,16.6326607 C13.5696048,16.597244 13.7687731,16.5793274 13.8777127,16.5793274 C14.546735,16.5793274 14.8814541,16.8730774 14.8814541,17.4605774 C14.8814541,18.065994 14.4818702,18.3689107 13.6822867,18.3689107 C13.5043242,18.3689107 13.2332226,18.345994 12.8693975,18.3018274 C12.5051567,18.2576607 12.234055,18.2351607 12.0565084,18.2351607 C12.003286,18.2351607 11.7987123,18.2530774 11.4436191,18.288494 C11.2298978,18.342244 11.0432036,18.3689107 10.8835364,18.3689107 C10.4041189,18.3689107 10.1637864,18.048494 10.1637864,17.407244 L10.1637864,17.2739107 L10.1637864,16.819744 C9.22449407,18.0839107 7.86025402,18.715994 6.0706505,18.715994 C4.26316758,18.715994 2.80953052,18.057244 1.71057092,16.7393274 C0.612027122,15.422244 0.0627552231,13.694744 0.0627552231,11.5580774 C0.0627552231,9.40391071 0.60454272,7.68141071 1.68853352,6.39057738 C2.77210851,5.09974405 4.22075597,4.45391071 6.0328127,4.45391071" id="Fill-9-Copy" fill="#EC008B"></path>
                    <path d="M17.0399554,18.7160357 C16.5780015,18.7160357 16.1871495,18.5510357 15.8673992,18.221869 C15.547649,17.8927024 15.3875659,17.4964524 15.3875659,17.033119 C15.3875659,16.570619 15.547649,16.174369 15.8673992,15.8447857 C16.1871495,15.515619 16.5780015,15.350619 17.0399554,15.350619 C17.5019093,15.350619 17.8931772,15.515619 18.2125116,15.8447857 C18.5326777,16.174369 18.6927607,16.570619 18.6927607,17.033119 C18.6927607,17.4964524 18.5326777,17.8927024 18.2125116,18.221869 C17.8931772,18.5510357 17.5019093,18.7160357 17.0399554,18.7160357 M17.0399554,9.68853571 C16.5780015,9.68853571 16.1871495,9.52436905 15.8673992,9.19478571 C15.547649,8.86520238 15.3875659,8.46936905 15.3875659,8.00603571 C15.3875659,7.54353571 15.547649,7.14728571 15.8673992,6.81770238 C16.1871495,6.48853571 16.5780015,6.32353571 17.0399554,6.32353571 C17.5019093,6.32353571 17.8931772,6.48853571 18.2125116,6.81770238 C18.5326777,7.14728571 18.6927607,7.54353571 18.6927607,8.00603571 C18.6927607,8.46936905 18.5326777,8.86520238 18.2125116,9.19478571 C17.8931772,9.52436905 17.5019093,9.68853571 17.0399554,9.68853571" id="Fill-11-Copy" fill="#000000"></path>
                    <path d="M27.8872646,9.44845238 C27.8872646,8.73636905 28.3313391,8.32678571 29.2199039,8.21970238 C29.1305068,7.59678571 28.8332098,7.10720238 28.3271811,6.75095238 C27.8207366,6.39470238 27.1679305,6.21678571 26.3683469,6.21678571 C25.1421525,6.21678571 24.1558747,6.70678571 23.4095136,7.68595238 C22.6635683,8.66511905 22.2901798,9.96511905 22.2901798,11.585119 C22.2901798,13.258869 22.6411151,14.5722024 23.3429856,15.5242857 C24.0448561,16.4772024 25.0178283,16.9534524 26.2614863,16.9534524 C27.0436063,16.9534524 27.7226078,16.7309524 28.3005699,16.2855357 C28.8777004,15.8405357 29.2735421,15.226369 29.4864317,14.442619 C29.6639783,13.8197024 29.7704232,13.463869 29.806182,13.3742857 C30.001608,13.0184524 30.2864311,12.840119 30.6589879,12.840119 C30.9612746,12.840119 31.2095072,12.9380357 31.4053491,13.133869 C31.6011909,13.330119 31.6984881,13.5792857 31.6984881,13.8817857 C31.6984881,14.3272024 31.5562845,14.861369 31.272293,15.4842857 C30.9878858,16.107619 30.6502561,16.623869 30.259404,17.0334524 C29.2111721,18.155119 27.8515058,18.7159524 26.1816527,18.7159524 C24.3691802,18.7159524 22.9072271,18.075119 21.7974567,16.7930357 C20.6868547,15.5109524 20.1317616,13.8284524 20.1317616,11.745119 C20.1317616,9.53761905 20.7047341,7.77053571 21.8506791,6.44386905 C22.9966241,5.11761905 24.5201156,4.45386905 26.4215694,4.45386905 C27.842774,4.45386905 29.024062,4.84136905 29.966265,5.61595238 C30.9076364,6.39053571 31.378322,7.37428571 31.378322,8.56720238 C31.378322,9.22595238 31.1966174,9.76886905 30.8323765,10.1959524 C30.4681357,10.6234524 30.001608,10.8372024 29.4332093,10.8372024 C28.988719,10.8372024 28.6203202,10.703869 28.3271811,10.4367857 C28.034042,10.1692857 27.8872646,9.84011905 27.8872646,9.44845238" id="Fill-13-Copy" fill="#58595B"></path>
                </g>
            </g>
        </g>
    </g>
</svg>